HIERARCHY
ROOT joint_0
{
	OFFSET 0.000000 0.000000 0.000000
	CHANNELS 6 Xposition Yposition Zposition Zrotation Yrotation Xrotation 
	JOINT joint_1
	{
		OFFSET 6.004005 -1.946999 100.587036
		CHANNELS 3 Zrotation Yrotation Xrotation
		JOINT joint_2
		{
			OFFSET -4.601006 -0.824997 91.925903
			CHANNELS 3 Zrotation Yrotation Xrotation
			JOINT joint_3
			{
				OFFSET -5.420998 -1.130005 91.774048
				CHANNELS 3 Zrotation Yrotation Xrotation
				JOINT joint_4
				{
					OFFSET 4.308998 -3.777992 123.473999
					CHANNELS 3 Zrotation Yrotation Xrotation
					JOINT joint_5
					{
						OFFSET 25.565002 -6.305008 79.437988
						CHANNELS 3 Zrotation Yrotation Xrotation
						End Site
						{
							OFFSET 0.000000 0.000000 0.000000
						}
					}
				}
				JOINT joint_6
				{
					OFFSET -1.750000 -28.655998 68.557983
					CHANNELS 3 Zrotation Yrotation Xrotation
					JOINT joint_7
					{
						OFFSET -17.692001 -116.544006 -17.244019
						CHANNELS 3 Zrotation Yrotation Xrotation
						JOINT joint_8
						{
							OFFSET 27.063004 -23.640991 -266.895020
							CHANNELS 3 Zrotation Yrotation Xrotation
							JOINT joint_9
							{
								OFFSET 40.722000 -15.761017 -232.488953
								CHANNELS 3 Zrotation Yrotation Xrotation
								End Site
								{
									OFFSET 0.000000 0.000000 0.000000
								}
							}
						}
					}
				}
				JOINT joint_10
				{
					OFFSET 6.593002 24.457001 69.892944
					CHANNELS 3 Zrotation Yrotation Xrotation
					JOINT joint_11
					{
						OFFSET 24.311996 114.920002 -19.872925
						CHANNELS 3 Zrotation Yrotation Xrotation
						JOINT joint_12
						{
							OFFSET 21.081001 15.319000 -268.037964
							CHANNELS 3 Zrotation Yrotation Xrotation
							JOINT joint_13
							{
								OFFSET 27.794006 -8.947001 -234.744080
								CHANNELS 3 Zrotation Yrotation Xrotation
								End Site
								{
									OFFSET 0.000000 0.000000 0.000000
								}
							}
						}
					}
				}
			}
		}
	}
	JOINT joint_14
	{
		OFFSET -6.627998 -80.520004 -98.790039
		CHANNELS 3 Zrotation Yrotation Xrotation
		JOINT joint_15
		{
			OFFSET -43.638000 -13.751999 -502.538971
			CHANNELS 3 Zrotation Yrotation Xrotation
			JOINT joint_16
			{
				OFFSET -39.532999 -9.912994 -398.071007
				CHANNELS 3 Zrotation Yrotation Xrotation
				JOINT joint_17
				{
					OFFSET 174.940004 -34.660995 -75.688002
					CHANNELS 3 Zrotation Yrotation Xrotation
					End Site
					{
						OFFSET 0.000000 0.000000 0.000000
					}
				}
			}
		}
	}
	JOINT joint_18
	{
		OFFSET 12.591003 79.842003 -98.765015
		CHANNELS 3 Zrotation Yrotation Xrotation
		JOINT joint_19
		{
			OFFSET -39.080002 -1.297001 -503.101013
			CHANNELS 3 Zrotation Yrotation Xrotation
			JOINT joint_20
			{
				OFFSET -51.570000 -0.514000 -396.815987
				CHANNELS 3 Zrotation Yrotation Xrotation
				JOINT joint_21
				{
					OFFSET 178.987999 -11.521999 -73.244003
					CHANNELS 3 Zrotation Yrotation Xrotation
					End Site
					{
						OFFSET 0.000000 0.000000 0.000000
					}
				}
			}
		}
	}
}
MOTION
Frames: 9
Frame Time: 0.016667
-2777.255615 949.867371 1096.456055 3.818300 1.060875 -0.035151 0.333320 -1.636166 -0.853609 0.387546 0.225903 0.177182 0.359565 -0.322154 -0.161303 -0.090897 -3.595041 -0.678858 0.000000 0.000000 0.000000 2.014277 3.490169 1.911073 -0.188332 3.703794 2.757388 -0.717065 3.091415 -2.637185 0.000000 0.000000 0.000000 1.262859 0.193847 1.680688 -0.180274 0.903481 -2.843432 0.507597 1.708578 5.267355 0.000000 0.000000 0.000000 1.707432 -2.739540 -3.078453 1.295519 -1.772930 1.419186 1.198474 3.542719 1.218610 0.000000 0.000000 0.000000 -1.437196 -4.247286 4.930561 -0.966752 1.067844 -0.828063 -1.042273 2.098437 -0.288256 0.000000 0.000000 0.000000 
-2777.219971 949.904602 1096.428955 3.807559 1.040776 -0.039795 0.328002 -1.649034 -0.860245 0.382717 0.228205 0.178523 0.354518 -0.323651 -0.162732 -0.088687 -3.593316 -0.685230 0.000000 0.000000 0.000000 2.015547 3.510765 1.927265 -0.189251 3.726608 2.762442 -0.717163 3.090389 -2.639056 0.000000 0.000000 0.000000 1.257135 0.202147 1.669490 -0.180906 0.907514 -2.830587 0.507003 1.729922 5.268240 0.000000 0.000000 0.000000 1.708431 -2.717182 -3.085717 1.294754 -1.772989 1.438058 1.199474 3.547117 1.219902 0.000000 0.000000 0.000000 -1.433864 -4.234629 4.941415 -0.961172 1.091750 -0.845193 -1.039109 2.105016 -0.286557 0.000000 0.000000 0.000000 
-2777.187256 949.942810 1096.401001 3.799387 1.021807 -0.043483 0.321779 -1.660719 -0.865383 0.376835 0.228456 0.178890 0.348600 -0.324258 -0.162801 -0.085747 -3.591198 -0.693782 0.000000 0.000000 0.000000 2.017450 3.531696 1.941175 -0.190147 3.749509 2.767354 -0.717268 3.089799 -2.640739 0.000000 0.000000 0.000000 1.251657 0.210061 1.658028 -0.181752 0.911484 -2.819876 0.506293 1.751499 5.267987 0.000000 0.000000 0.000000 1.708516 -2.696197 -3.094769 1.292732 -1.772421 1.458662 1.199498 3.550562 1.220584 0.000000 0.000000 0.000000 -1.431166 -4.224776 4.952178 -0.956066 1.117543 -0.864338 -1.036654 2.112451 -0.285090 0.000000 0.000000 0.000000 
-2777.161621 949.989990 1096.374023 3.790690 1.005617 -0.046053 0.316327 -1.677304 -0.867887 0.371705 0.231643 0.180025 0.343257 -0.326509 -0.163988 -0.082225 -3.586005 -0.703323 0.000000 0.000000 0.000000 2.019856 3.553320 1.953377 -0.191293 3.773314 2.769828 -0.717369 3.090433 -2.641779 0.000000 0.000000 0.000000 1.246271 0.218246 1.647057 -0.182701 0.916726 -2.813563 0.505515 1.770733 5.266191 0.000000 0.000000 0.000000 1.708740 -2.679846 -3.107130 1.290103 -1.769276 1.482744 1.199402 3.552551 1.220923 0.000000 0.000000 0.000000 -1.428242 -4.218925 4.961540 -0.950815 1.144154 -0.884025 -1.034142 2.121601 -0.283489 0.000000 0.000000 0.000000 
-2777.141846 950.041138 1096.348022 3.782807 0.991115 -0.047099 0.311272 -1.694732 -0.869013 0.366879 0.234709 0.180485 0.338306 -0.329578 -0.164239 -0.078326 -3.579069 -0.713592 0.000000 0.000000 0.000000 2.020694 3.575582 1.963516 -0.192483 3.797397 2.771030 -0.717447 3.092576 -2.641977 0.000000 0.000000 0.000000 1.239268 0.226329 1.635985 -0.183835 0.922729 -2.810230 0.504620 1.789540 5.263015 0.000000 0.000000 0.000000 1.708545 -2.666228 -3.122330 1.286538 -1.764671 1.508969 1.198693 3.553587 1.220807 0.000000 0.000000 0.000000 -1.425439 -4.216440 4.969546 -0.945735 1.172678 -0.904680 -1.031925 2.132462 -0.281899 0.000000 0.000000 0.000000 
-2777.118164 950.094299 1096.317993 3.778407 0.979303 -0.047263 0.305766 -1.715436 -0.868697 0.361503 0.237910 0.179939 0.332881 -0.332299 -0.164320 -0.074949 -3.570034 -0.721623 0.000000 0.000000 0.000000 2.018862 3.598735 1.973648 -0.193981 3.822312 2.770323 -0.717545 3.093094 -2.643032 0.000000 0.000000 0.000000 1.233828 0.235488 1.624831 -0.184659 0.929803 -2.807992 0.503555 1.803872 5.256535 0.000000 0.000000 0.000000 1.707221 -2.654819 -3.139804 1.281321 -1.759424 1.538343 1.196916 3.550498 1.219411 0.000000 0.000000 0.000000 -1.423471 -4.217012 4.977649 -0.941272 1.200682 -0.927686 -1.030586 2.143268 -0.280667 0.000000 0.000000 0.000000 
-2777.085693 950.149475 1096.281982 3.775471 0.971454 -0.046889 0.299297 -1.740573 -0.867940 0.355114 0.240460 0.178355 0.326572 -0.335715 -0.163302 -0.072596 -3.556573 -0.725122 0.000000 0.000000 0.000000 2.017625 3.623025 1.984661 -0.196033 3.849277 2.765641 -0.717417 3.091012 -2.644079 0.000000 0.000000 0.000000 1.236459 0.247833 1.613966 -0.184812 0.939009 -2.806522 0.502136 1.809887 5.243587 0.000000 0.000000 0.000000 1.705464 -2.646482 -3.159341 1.275160 -1.754129 1.570935 1.194863 3.540592 1.216541 0.000000 0.000000 0.000000 -1.421685 -4.219851 4.986015 -0.936792 1.225439 -0.952734 -1.029475 2.152630 -0.279620 0.000000 0.000000 0.000000 
-2777.048096 950.207764 1096.241943 3.772446 0.967682 -0.046207 0.293351 -1.770840 -0.865767 0.349169 0.242822 0.175827 0.320832 -0.338133 -0.161434 -0.071452 -3.541548 -0.724378 0.000000 0.000000 0.000000 2.013319 3.647799 1.995773 -0.198460 3.876908 2.757219 -0.717060 3.087233 -2.644712 0.000000 0.000000 0.000000 1.242800 0.261712 1.603293 -0.184473 0.949468 -2.806184 0.500393 1.808912 5.224922 0.000000 0.000000 0.000000 1.703837 -2.642077 -3.180818 1.268590 -1.748547 1.606794 1.192972 3.525847 1.212778 0.000000 0.000000 0.000000 -1.419657 -4.225784 4.994876 -0.931876 1.248137 -0.979732 -1.028186 2.161476 -0.278533 0.000000 0.000000 0.000000 
-2776.992432 950.259155 1096.189941 3.785134 0.962033 -0.041601 0.282746 -1.799991 -0.868155 0.338878 0.245662 0.175800 0.310474 -0.340028 -0.161466 -0.070277 -3.525697 -0.723479 0.000000 0.000000 0.000000 2.004545 3.674655 2.006260 -0.200962 3.904925 2.755102 -0.718030 3.080274 -2.653961 0.000000 0.000000 0.000000 1.250505 0.277181 1.591414 -0.183937 0.960654 -2.803903 0.498613 1.807541 5.205969 0.000000 0.000000 0.000000 1.696470 -2.631599 -3.207496 1.255619 -1.743739 1.647729 1.185742 3.504475 1.205398 0.000000 0.000000 0.000000 -1.422003 -4.231724 5.001359 -0.931175 1.272517 -1.009998 -1.031313 2.170374 -0.279234 0.000000 0.000000 0.000000 
